# xmcd
#
# Track frame offsets: 
#        150
#        24753
#        45350
#        81785
#        102307
#        125754
#        130436
#        153686
#        178179
#        210111
#        231583
#        272512
#
# Disc length: 3834 seconds
#
# Revision: 0
# Processed by: cddbd v1.5.1PL0 Copyright (c) Steve Scherf et al.
# Submitted via: ExactAudioCopy v0.95a5
#
DISCID=9e0ef80c
DTITLE=Patricia Barber - Cafe Blue
DYEAR=1900
DGENRE=Blues
TTITLE0=What A Shame
TTITLE1=A Taste Of Honey
TTITLE2=Too Rich For My Blood
TTITLE3=Romanesque
TTITLE4=Yellow Car III
TTITLE5=Wood is a Pleasant Thing to Think About
TTITLE6=Inch Worm
TTITLE7=Ode to Billy Joe
TTITLE8=Morning Grace
TTITLE9=The Thrill Is Gone
TTITLE10=Nardis
TTITLE11=Manha de Carnaval
EXTD=
EXTT0=
EXTT1=
EXTT2=
EXTT3=
EXTT4=
EXTT5=
EXTT6=
EXTT7=
EXTT8=
EXTT9=
EXTT10=
EXTT11=
PLAYORDER=
